<svg width="24" height="24" viewBox="0 0 24 24" fill="none" xmlns="http://www.w3.org/2000/svg">
<path fill-rule="evenodd" clip-rule="evenodd" d="M10.3383 16.9603C10.3383 17.6611 9.77024 18.2292 9.06947 18.2292C8.36871 18.2292 7.80062 17.6611 7.80062 16.9603C7.80062 16.2596 8.36871 15.6915 9.06947 15.6915C9.77024 15.6915 10.3383 16.2596 10.3383 16.9603ZM9.06947 20.9976C10.8132 20.9976 12.2987 19.8921 12.8634 18.3438L17.5836 18.3438C18.348 18.3438 18.9678 17.7241 18.9678 16.9596C18.9678 16.1952 18.348 15.5754 17.5836 15.5754L12.8629 15.5754C12.2978 14.0279 10.8127 12.9231 9.06947 12.9231C6.83976 12.9231 5.03222 14.7306 5.03222 16.9603C5.03222 19.19 6.83976 20.9976 9.06947 20.9976ZM13.6613 7.03968C13.6613 7.74044 14.2294 8.30853 14.9302 8.30853C15.631 8.30853 16.1991 7.74044 16.1991 7.03968C16.1991 6.33891 15.631 5.77082 14.9302 5.77082C14.2294 5.77082 13.6613 6.33891 13.6613 7.03968ZM14.9302 11.0769C13.1866 11.0769 11.7011 9.97157 11.1363 8.42335L6.41645 8.42335C5.65197 8.42335 5.03225 7.80362 5.03225 7.03915C5.03225 6.27468 5.65198 5.65495 6.41645 5.65495L11.1367 5.65495C11.7018 4.10728 13.187 3.00242 14.9302 3.00242C17.1599 3.00242 18.9675 4.80996 18.9675 7.03968C18.9675 9.26939 17.1599 11.0769 14.9302 11.0769Z" fill="white"/>
</svg>
