<svg width="24" height="24" viewBox="0 0 24 24" fill="none" xmlns="http://www.w3.org/2000/svg">
<path d="M2.99976 19.2659V11.7652C2.99976 10.6868 3.4674 9.66139 4.28167 8.95433L10.3728 3.66519C11.3062 2.85468 12.6938 2.85467 13.6272 3.66519L19.7183 8.95432C20.5326 9.66139 21.0002 10.6868 21.0002 11.7652V19.266C21.0002 20.6366 19.8891 21.7478 18.5184 21.7478H16.359C15.6737 21.7478 15.1181 21.1922 15.1181 20.5069V17.1324C15.1181 16.4471 14.5626 15.8915 13.8772 15.8915H10.3254C9.64003 15.8915 9.08446 16.4471 9.08446 17.1324V20.5069C9.08446 21.1922 8.52888 21.7478 7.84355 21.7478H5.48158C4.11091 21.7478 2.99976 20.6366 2.99976 19.2659Z" stroke="white" stroke-width="1.86137" stroke-linejoin="round"/>
</svg>
