<svg width="24" height="24" viewBox="0 0 24 24" fill="none" xmlns="http://www.w3.org/2000/svg">
<path d="M2 19.6258V11.2919C2 10.0937 2.51959 8.95436 3.42431 8.16875L10.192 2.29209C11.2291 1.39154 12.7708 1.39154 13.8079 2.29208L20.5757 8.16875C21.4804 8.95436 22 10.0937 22 11.2919V19.6258C22 21.1487 20.7654 22.3833 19.2425 22.3833H16.8433C16.0818 22.3833 15.4645 21.766 15.4645 21.0046V17.2553C15.4645 16.4938 14.8472 15.8765 14.0858 15.8765H10.1394C9.37789 15.8765 8.7606 16.4938 8.7606 17.2553V21.0046C8.7606 21.766 8.14332 22.3833 7.38185 22.3833H4.75751C3.23458 22.3833 2 21.1487 2 19.6258Z" fill="white"/>
</svg>
