<svg width="20" height="20" viewBox="0 0 20 20" fill="none" xmlns="http://www.w3.org/2000/svg">
<path d="M4.77499 13.8998L5.47792 13.3696L5.47556 13.3665L4.77499 13.8998ZM9.23871 18.0712L8.76186 18.8114L8.7635 18.8125L9.23871 18.0712ZM10.7572 18.0712L10.2784 17.3323L10.2751 17.3345L10.7572 18.0712ZM15.2251 13.8998L15.9258 14.4329L15.9258 14.4329L15.2251 13.8998ZM3.79655 8.65448C3.79655 5.32763 6.58518 2.6029 9.99456 2.6029V0.841952C5.65399 0.841952 2.0356 4.31424 2.0356 8.65448H3.79655ZM5.47556 13.3665C4.41676 11.9756 3.79655 10.3654 3.79655 8.65448H2.0356C2.0356 10.8071 2.81882 12.7838 4.07442 14.4331L5.47556 13.3665ZM9.71557 17.3311C8.02782 16.2437 6.68398 14.9685 5.47791 13.3696L4.07206 14.43C5.39552 16.1846 6.88978 17.6053 8.76186 18.8114L9.71557 17.3311ZM10.2751 17.3345C10.2398 17.3576 10.144 17.3958 10.0047 17.3971C9.86779 17.3983 9.7654 17.363 9.71392 17.33L8.7635 18.8125C9.15658 19.0645 9.61091 19.1617 10.0208 19.1579C10.4284 19.1542 10.8695 19.0499 11.2392 18.808L10.2751 17.3345ZM14.5243 13.3667C13.3063 14.9676 11.9578 16.2442 10.2784 17.3323L11.236 18.8102C13.0963 17.6048 14.5924 16.1855 15.9258 14.4329L14.5243 13.3667ZM16.2035 8.65448C16.2035 10.3652 15.5826 11.9755 14.5243 13.3667L15.9258 14.4329C17.1802 12.7839 17.9644 10.8073 17.9644 8.65448H16.2035ZM9.99456 2.6029C13.4157 2.6029 16.2035 5.3285 16.2035 8.65448H17.9644C17.9644 4.31337 14.3452 0.841952 9.99456 0.841952V2.6029ZM11.6875 8.97193C11.6875 9.90395 10.9319 10.6595 9.99989 10.6595V12.4204C11.9045 12.4204 13.4484 10.8765 13.4484 8.97193H11.6875ZM9.99989 7.28435C10.9319 7.28435 11.6875 8.03991 11.6875 8.97193H13.4484C13.4484 7.06736 11.9045 5.52341 9.99989 5.52341V7.28435ZM8.31232 8.97193C8.31232 8.03991 9.06787 7.28435 9.99989 7.28435V5.52341C8.09533 5.52341 6.55137 7.06736 6.55137 8.97193H8.31232ZM9.99989 10.6595C9.06787 10.6595 8.31232 9.90395 8.31232 8.97193H6.55137C6.55137 10.8765 8.09533 12.4204 9.99989 12.4204V10.6595Z" fill="white"/>
</svg>
