<svg width="24" height="24" viewBox="0 0 24 24" fill="none" xmlns="http://www.w3.org/2000/svg">
<path fill-rule="evenodd" clip-rule="evenodd" d="M1.99811 11.4332C1.99811 7.70435 1.99811 5.83995 3.1565 4.68156C4.31489 3.52317 6.17929 3.52317 9.90809 3.52317H14.0919C17.8207 3.52317 19.6851 3.52317 20.8435 4.68156C21.3431 5.18111 21.6272 5.81197 21.7888 6.66703C21.9039 7.27596 21.9614 7.58042 21.7637 7.81898C21.566 8.05755 21.2262 8.05755 20.5466 8.05755H17.0215C15.0193 8.05755 13.3961 9.6807 13.3961 11.683V12.3171C13.3961 14.3193 15.0193 15.9425 17.0215 15.9425H20.5466C21.2262 15.9425 21.566 15.9425 21.7637 16.181C21.9614 16.4196 21.9039 16.7241 21.7888 17.333C21.6272 18.188 21.3431 18.8189 20.8435 19.3185C19.6851 20.4769 17.8207 20.4769 14.0919 20.4769H9.90809C6.17929 20.4769 4.31489 20.4769 3.1565 19.3185C1.99811 18.1601 1.99811 16.2957 1.99811 12.5669V11.4332ZM21.8088 10.2281C22.0019 10.4212 22.0019 10.7291 22.0019 11.345V11.4331V12.5669V12.655C22.0019 13.2709 22.0019 13.5789 21.8088 13.7719C21.6157 13.965 21.3069 13.965 20.6892 13.965H17.0215C16.1114 13.965 15.3736 13.2272 15.3736 12.3171V11.683C15.3736 10.7728 16.1114 10.035 17.0215 10.035H20.6892C21.3069 10.035 21.6157 10.035 21.8088 10.2281ZM17.6699 12.9926C18.2187 12.9926 18.6636 12.5477 18.6636 11.9989C18.6636 11.4501 18.2187 11.0052 17.6699 11.0052C17.1211 11.0052 16.6762 11.4501 16.6762 11.9989C16.6762 12.5477 17.1211 12.9926 17.6699 12.9926Z" fill="white"/>
</svg>
