<svg width="24" height="24" viewBox="0 0 24 24" fill="none" xmlns="http://www.w3.org/2000/svg">
<path d="M3.12654 4.88197C1.99988 6.00863 1.99988 7.82198 1.99988 11.4487V12.5513C1.99988 16.178 1.99988 17.9914 3.12654 19.118C4.25321 20.2447 6.06655 20.2447 9.69324 20.2447H13.7625C17.3892 20.2447 19.2025 20.2447 20.3292 19.118C20.8151 18.6322 21.0914 18.0186 21.2486 17.1869C21.3605 16.5947 21.4165 16.2986 21.2242 16.0665C21.0319 15.8345 20.7014 15.8345 20.0404 15.8345H16.6119C14.6644 15.8345 13.0858 14.2558 13.0858 12.3084V11.6916C13.0858 9.7442 14.6645 8.1655 16.6119 8.1655H20.0404C20.7014 8.1655 21.0319 8.1655 21.2242 7.93348C21.4165 7.70145 21.3605 7.40532 21.2486 6.81307C21.0914 5.98142 20.8151 5.36784 20.3292 4.88197C19.2025 3.7553 17.3892 3.7553 13.7625 3.7553H9.69324C6.06655 3.7553 4.25321 3.7553 3.12654 4.88197Z" stroke="white" stroke-width="1.92334"/>
<path fill-rule="evenodd" clip-rule="evenodd" d="M21.8123 10.276C22.0001 10.4637 22.0001 10.7632 22.0001 11.362L22.0001 11.448V12.5507L22.0001 12.6368C22.0001 13.2356 22.0001 13.535 21.8123 13.7227C21.6246 13.9105 21.3242 13.9105 20.7236 13.9105H16.9625C16.0419 13.9105 15.2956 13.1929 15.2956 12.3077V11.691C15.2956 10.8058 16.0419 10.0882 16.9625 10.0882H20.7236C21.3242 10.0882 21.6246 10.0882 21.8123 10.276ZM17.6805 12.9639C18.214 12.9639 18.6464 12.5315 18.6464 11.998C18.6464 11.4645 18.214 11.0321 17.6805 11.0321C17.1471 11.0321 16.7146 11.4645 16.7146 11.998C16.7146 12.5315 17.1471 12.9639 17.6805 12.9639Z" fill="white"/>
</svg>
