<svg width="24" height="24" viewBox="0 0 24 24" fill="none" xmlns="http://www.w3.org/2000/svg">
<path fill-rule="evenodd" clip-rule="evenodd" d="M10.6644 1.99388C5.86854 1.99388 1.99976 5.92046 1.99976 10.7405C1.99976 15.5606 5.86854 19.4872 10.6644 19.4872C15.4603 19.4872 19.3291 15.5606 19.3291 10.7405C19.3291 8.42436 18.4189 6.20083 16.7952 4.55968C15.1712 2.91815 12.9661 1.99388 10.6644 1.99388ZM4.09 10.7405C4.09 7.05372 7.04398 4.08412 10.6644 4.08412C12.4044 4.08412 14.0755 4.78267 15.3093 6.02977C16.5435 7.27725 17.2389 8.97155 17.2389 10.7405C17.2389 14.4273 14.2849 17.3969 10.6644 17.3969C7.04398 17.3969 4.09 14.4273 4.09 10.7405ZM19.1108 17.6386C18.7027 17.2305 18.0409 17.2305 17.6328 17.6386C17.2247 18.0468 17.2247 18.7085 17.6328 19.1167L20.2161 21.7C20.6243 22.1082 21.286 22.1082 21.6942 21.7C22.1023 21.2919 22.1023 20.6301 21.6942 20.222L19.1108 17.6386Z" fill="white"/>
</svg>
