<svg width="24" height="24" viewBox="0 0 24 24" fill="none" xmlns="http://www.w3.org/2000/svg">
<path fill-rule="evenodd" clip-rule="evenodd" d="M2.18044 10.9959C2.37612 11.1962 2.69273 11.1962 3.32595 11.1962H4.10468C4.65106 11.1962 5.09399 11.6391 5.09399 12.1855C5.09399 12.7319 4.65106 13.1748 4.10468 13.1748H3.33128C2.69423 13.1748 2.37571 13.1748 2.17955 13.3783C1.98339 13.5818 1.99483 13.8919 2.01771 14.5119C2.05972 15.6504 2.17158 16.4186 2.4694 17.0707C2.99665 18.2249 3.92225 19.1505 5.07654 19.6778C6.12075 20.1548 7.4629 20.1548 10.1472 20.1548H13.8528C16.5371 20.1548 17.8792 20.1548 18.9234 19.6778C20.0777 19.1505 21.0033 18.2249 21.5306 17.0707C21.8284 16.4186 21.9402 15.6504 21.9823 14.5119C22.0051 13.8919 22.0166 13.5818 21.8204 13.3783C21.6243 13.1748 21.3057 13.1748 20.6687 13.1748H19.8953C19.3489 13.1748 18.906 12.7319 18.906 12.1855C18.906 11.6391 19.3489 11.1962 19.8953 11.1962H20.674C21.3072 11.1962 21.6238 11.1962 21.8195 10.9959C22.0152 10.7956 22.0079 10.4846 21.9934 9.86282V9.8628C21.9619 8.51364 21.8599 7.65045 21.5306 6.92935C21.0033 5.77505 20.0777 4.84945 18.9234 4.32221C17.8792 3.84524 16.5371 3.84524 13.8528 3.84524H10.1472C7.4629 3.84524 6.12075 3.84524 5.07654 4.32221C3.92225 4.84945 2.99665 5.77505 2.4694 6.92935C2.14002 7.65045 2.0381 8.51364 2.00657 9.8628C1.99203 10.4846 1.98476 10.7956 2.18044 10.9959ZM11.6178 8.58405C11.7914 8.29568 12.2094 8.29568 12.383 8.58405L13.2364 10.0022C13.2987 10.1058 13.4004 10.1796 13.5182 10.2069L15.1307 10.5804C15.4585 10.6563 15.5877 11.0539 15.3671 11.3081L14.2821 12.5579C14.2029 12.6493 14.164 12.7688 14.1745 12.8893L14.3176 14.5382C14.3467 14.8735 14.0085 15.1192 13.6986 14.9879L12.1746 14.3423C12.0632 14.2951 11.9375 14.2951 11.8262 14.3423L10.3022 14.9879C9.99233 15.1192 9.6541 14.8735 9.6832 14.5382L9.8263 12.8893C9.83676 12.7688 9.79791 12.6493 9.71865 12.5579L8.63368 11.3081C8.41305 11.0539 8.54224 10.6563 8.87012 10.5804L10.4825 10.2069C10.6003 10.1796 10.702 10.1058 10.7644 10.0022L11.6178 8.58405Z" fill="white"/>
</svg>
