<svg width="24" height="24" viewBox="0 0 24 24" fill="none" xmlns="http://www.w3.org/2000/svg">
<path d="M3.31412 10.2067C3.18491 10.2067 3.07974 10.2066 2.98868 10.2052C2.98942 10.1185 2.99168 10.0186 2.99449 9.89646C3.02554 8.54893 3.12943 7.86321 3.36845 7.33993C3.79688 6.40197 4.549 5.64985 5.48696 5.22142C5.85804 5.05192 6.32332 4.94626 7.06975 4.89075C7.82622 4.83448 8.78995 4.83385 10.147 4.83385H13.853C15.2101 4.83385 16.1738 4.83448 16.9303 4.89075C17.6767 4.94626 18.142 5.05192 18.513 5.22142L18.9227 4.32448L18.513 5.22142C19.451 5.64985 20.2031 6.40197 20.6316 7.33993C20.8706 7.86321 20.9745 8.54893 21.0055 9.89645C21.0083 10.0186 21.0106 10.1185 21.0113 10.2052C20.9203 10.2066 20.8151 10.2067 20.6859 10.2067H19.8961C18.8032 10.2067 17.9173 11.0926 17.9173 12.1855C17.9173 13.2784 18.8032 14.1643 19.8961 14.1643H20.6806C20.809 14.1643 20.9138 14.1643 21.0046 14.1657C21.0027 14.2501 20.9992 14.3471 20.9949 14.465C20.9542 15.5823 20.846 16.1906 20.6316 16.6601C20.2031 17.598 19.451 18.3502 18.513 18.7786C18.142 18.9481 17.6767 19.0537 16.9303 19.1093C16.1738 19.1655 15.2101 19.1662 13.853 19.1662H10.147C8.78995 19.1662 7.82622 19.1655 7.06975 19.1093C6.32332 19.0537 5.85804 18.9481 5.48696 18.7786C4.549 18.3502 3.79688 17.598 3.36845 16.6601C3.15398 16.1906 3.04578 15.5823 3.00509 14.465C3.00079 14.3471 2.9973 14.2501 2.99539 14.1657C3.08619 14.1643 3.19098 14.1643 3.31943 14.1643H4.10393C5.19679 14.1643 6.08273 13.2784 6.08273 12.1855C6.08273 11.0926 5.19679 10.2067 4.10393 10.2067H3.31412Z" stroke="white" stroke-width="1.97881" stroke-linejoin="round"/>
<path d="M12.3794 8.57869C12.2073 8.29267 11.7926 8.29267 11.6205 8.57869L10.763 10.0035C10.7012 10.1063 10.6003 10.1796 10.4835 10.2066L8.86344 10.5818C8.53823 10.6571 8.41009 11.0515 8.62892 11.3036L9.71904 12.5594C9.79765 12.65 9.83618 12.7685 9.82581 12.888L9.68203 14.5447C9.65317 14.8773 9.98864 15.121 10.296 14.9908L11.8272 14.3421C11.9376 14.2953 12.0623 14.2953 12.1727 14.3421L13.7039 14.9908C14.0113 15.121 14.3468 14.8773 14.3179 14.5447L14.1741 12.888C14.1638 12.7685 14.2023 12.65 14.2809 12.5594L15.371 11.3036C15.5899 11.0515 15.4617 10.6571 15.1365 10.5818L13.5164 10.2066C13.3996 10.1796 13.2988 10.1063 13.2369 10.0035L12.3794 8.57869Z" fill="white"/>
</svg>
